<svg width="39" height="39" viewBox="0 0 39 39" fill="none" xmlns="http://www.w3.org/2000/svg">
<rect x="0.628906" y="0.379395" width="38.1496" height="38.1496" rx="19.0748" fill="#CAFF33"/>
<path fill-rule="evenodd" clip-rule="evenodd" d="M19.7036 13.6016C20.0627 13.6016 20.3538 13.8927 20.3538 14.2518V18.8038H24.9058C25.2649 18.8038 25.5561 19.0949 25.5561 19.4541C25.5561 19.8132 25.2649 20.1043 24.9058 20.1043H20.3538V24.6563C20.3538 25.0154 20.0627 25.3066 19.7036 25.3066C19.3444 25.3066 19.0533 25.0154 19.0533 24.6563V20.1043H14.5014C14.1422 20.1043 13.8511 19.8132 13.8511 19.4541C13.8511 19.0949 14.1422 18.8038 14.5014 18.8038L19.0533 18.8038V14.2518C19.0533 13.8927 19.3444 13.6016 19.7036 13.6016Z" fill="#1A1A1A"/>
</svg>
